<svg width="50" height="72" viewBox="0 0 50 72" fill="none" xmlns="http://www.w3.org/2000/svg">
<path d="M30.1624 47.0454L31.6659 49.6492H35.958V56.0412H25.6771V42.7701H34.9417V26.1475H28.1466C25.3496 26.1475 23.0733 28.4154 23.0733 31.2208V40.1746H11.0705L25.4 14.1028V8.71033L6.67761 42.7701H23.0817V58.645H38.5703V47.0454H30.1624ZM28.7177 28.743H32.3379V40.1662H25.6771V31.7836C25.6771 30.1037 27.0378 28.743 28.7177 28.743Z" fill="#D4563D"/>
<path d="M38.6878 72H10.6925C4.79606 72 0 67.2039 0 61.3075V10.6925C0 4.79606 4.79606 0 10.6925 0H34.6561V2.14186H10.6925C5.98038 2.14186 2.14186 5.98038 2.14186 10.6925V61.3075C2.14186 66.0196 5.98038 69.8581 10.6925 69.8581H38.6878C43.3999 69.8581 47.2384 66.0196 47.2384 61.3075V18.8147H49.3803V61.3075C49.3803 67.2039 44.5842 72 38.6878 72Z" fill="#D4563D"/>
<path d="M49.3719 12.1709H47.23V15.8162H49.3719V12.1709Z" fill="#D4563D"/>
</svg>
